<svg width="100" height="180" viewBox="0 0 100 180" fill="none" xmlns="http://www.w3.org/2000/svg">
<path d="M57.035 0C57.6963 0.000308662 58.0791 0.750379 57.6913 1.28613L57.035 2.19238L56.245 3.08105C55.6027 3.80341 55.9148 4.94713 56.8348 5.24316C56.967 5.28562 57.1061 5.30762 57.245 5.30762H60.246C60.8252 5.30763 61.404 5.35791 61.9745 5.45801L64.4052 5.88477L67.1132 6.7666C67.1974 6.79411 67.2781 6.83209 67.3534 6.87891L68.4647 7.56934C68.7953 7.77551 68.7431 8.27198 68.3768 8.40527C68.0571 8.5216 67.9684 8.93308 68.2069 9.17578C68.2425 9.21188 68.2838 9.24264 68.329 9.26562L71.079 10.665C71.6176 10.9391 72.1308 11.2613 72.6112 11.6279L75.0643 13.5L80.8612 18.9922C81.3793 19.4831 81.8439 20.0285 82.246 20.6182L85.0731 24.7646C85.3546 25.1775 85.6045 25.6113 85.8212 26.0615L88.2177 31.0391L89.747 34.1514C90.0118 34.6905 90.2274 35.2532 90.3915 35.8311L91.619 40.1543L92.2118 42.5664C92.2677 42.794 92.226 43.0354 92.0975 43.2314C91.8358 43.6307 91.2956 43.7337 90.9052 43.459L90.2684 43.0107C90.187 42.9534 90.0949 42.9125 89.9979 42.8896C89.4109 42.7518 88.8964 43.304 89.0751 43.8799L89.2968 44.5947C89.3327 44.7106 89.3514 44.8318 89.3514 44.9531V46.0537C89.3514 46.7339 89.2695 47.4117 89.1073 48.0723L88.6708 49.8467L87.7636 53.5391L87.1971 56.7705L86.5165 60.8086L85.7011 64.7734C85.5647 65.4363 85.496 66.1114 85.496 66.7881V69.3496C85.496 69.5006 85.5224 69.651 85.5741 69.793L86.9364 73.5361C87.1187 74.0374 86.481 74.4269 86.118 74.0361C85.9553 73.861 85.6896 73.8291 85.4901 73.9609L84.077 74.8955C83.7428 75.1166 83.4672 75.4159 83.2733 75.7666L83.1688 75.9561C82.7692 76.6791 82.6493 77.5234 82.8319 78.3291L83.2011 79.9609C83.4428 81.0274 83.4566 82.133 83.2411 83.2051L82.6561 86.1162C82.5847 86.4716 82.4429 86.8097 82.2391 87.1094C81.7881 87.7723 81.6523 88.6011 81.869 89.373L83.3036 94.4834C83.4294 94.9315 83.2965 95.4019 82.9784 95.7188C84.7462 100.276 85.7244 105.284 85.7245 110.54C85.7245 113.695 85.3686 116.759 84.705 119.691C84.7729 123.001 84.5897 127.113 84.5897 131.656C84.5897 143.127 84.2972 158.541 79.6005 158.541C76.3505 158.541 71.8443 151.161 69.3759 142.813C63.9381 146.562 57.4894 148.733 50.5731 148.733C43.4672 148.733 36.6428 146.255 30.8436 142.08C28.4285 150.723 23.7548 158.541 20.41 158.541C15.7133 158.541 15.4208 143.127 15.4208 131.656C15.4208 127.143 15.2384 123.055 15.3026 119.757C14.3499 116.355 13.8349 112.795 13.8348 109.156C13.8348 104.051 14.8512 99.2612 16.6649 94.9326C16.6522 94.7847 16.665 94.6328 16.7069 94.4834L18.1415 89.373C18.3582 88.6011 18.2223 87.7723 17.7714 87.1094C17.5675 86.8096 17.4258 86.4716 17.3544 86.1162L16.7694 83.2051C16.5539 82.133 16.5677 81.0274 16.8095 79.9609L17.1786 78.3291C17.3612 77.5235 17.2412 76.679 16.8417 75.9561L16.7372 75.7666C16.5433 75.4159 16.2676 75.1166 15.9335 74.8955L14.5204 73.9609C14.3209 73.829 14.0553 73.8611 13.8925 74.0361C13.5295 74.4272 12.8916 74.0374 13.0741 73.5361L14.4364 69.793C14.488 69.6511 14.5145 69.5006 14.5145 69.3496V66.7881C14.5145 66.1114 14.4458 65.4363 14.3095 64.7734L13.494 60.8086L12.8134 56.7705L12.247 53.5391L11.3397 49.8467L10.9032 48.0723C10.741 47.4117 10.6591 46.7339 10.6591 46.0537V44.9531C10.6591 44.8317 10.6778 44.7107 10.7138 44.5947L10.9354 43.8799C11.1141 43.3041 10.5995 42.752 10.0126 42.8896C9.91557 42.9124 9.82357 42.9534 9.74207 43.0107L9.10535 43.459C8.71491 43.7338 8.17483 43.6307 7.91297 43.2314C7.78448 43.0353 7.74277 42.7941 7.79871 42.5664L8.39148 40.1543L9.61902 35.8311C9.78308 35.2532 9.99866 34.6905 10.2636 34.1514L11.7929 31.0391L14.1893 26.0615C14.4061 25.6113 14.6559 25.1775 14.9374 24.7646L17.7645 20.6182C18.1666 20.0285 18.6312 19.4831 19.1493 18.9922L24.9462 13.5L27.3993 11.6279C27.8797 11.2613 28.3929 10.9391 28.9315 10.665L31.6815 9.26562C31.7266 9.24262 31.7681 9.21189 31.8036 9.17578C32.0419 8.93313 31.9531 8.52171 31.6337 8.40527C31.2672 8.27207 31.2149 7.77547 31.5458 7.56934L32.6571 6.87891C32.7324 6.8321 32.813 6.79409 32.8973 6.7666L35.6054 5.88477L38.036 5.45801C38.6065 5.35793 39.1853 5.30762 39.7645 5.30762H42.7655C42.9044 5.30759 43.0435 5.28564 43.1757 5.24316C44.0954 4.94701 44.4075 3.80334 43.7655 3.08105L42.9755 2.19238L42.3192 1.28613C41.9312 0.750289 42.3139 8.07518e-05 42.9755 0C44.3852 4.62715e-05 45.7688 0.382442 46.9784 1.10645L47.0575 1.1543L48.1659 1.87891C48.4833 2.08656 48.7681 2.34117 49.0106 2.63281C49.4826 3.20051 49.774 3.89052 49.8612 4.61719C50.0717 3.95877 50.4059 3.34586 50.8485 2.81348C51.1909 2.40172 51.5937 2.04317 52.0419 1.75L52.953 1.1543L53.0321 1.10645C54.2417 0.382484 55.6253 0 57.035 0ZM48.8876 71.6719C48.7331 71.9307 48.5613 72.1793 48.3749 72.417C48.7029 72.3969 49.0317 72.3812 49.3612 72.3701C49.186 72.1502 49.0268 71.9174 48.8876 71.6719Z" fill="#9C9E67"/>
<path d="M84.7046 137.079C84.7046 140.839 84.3625 146.887 86.6303 148.157C90.4503 148.157 96.8354 141.532 96.8354 137.772C96.8354 134.012 96.5754 133.387 92.7553 133.387C88.9353 133.387 84.7046 133.32 84.7046 137.079Z" fill="#FAE7BB"/>
<path d="M15.3046 137.079C15.3046 140.839 15.6468 146.887 13.379 148.157C9.55894 148.157 3.17383 141.532 3.17383 137.772C3.17383 134.012 3.43387 133.387 7.25394 133.387C11.074 133.387 15.3046 133.32 15.3046 137.079Z" fill="#FAE7BB"/>
<path d="M83.7865 106.502C86.1623 124.848 79.467 139.618 91.9937 136.963C100.201 135.925 99.9996 127.964 99.9996 109.617C97.9585 94.0401 88.646 73.5013 86.1623 73.5013C80.5561 73.5013 80.6549 89.4246 83.7865 106.502Z" fill="#9C9E67"/>
<path d="M83.7865 106.502C86.1623 124.848 79.467 139.618 91.9937 136.963C100.201 135.925 99.9996 127.964 99.9996 109.617C97.9585 94.0401 88.646 73.5013 86.1623 73.5013C80.5561 73.5013 80.6549 89.4246 83.7865 106.502Z" fill="#9C9E67"/>
<path d="M16.2135 106.502C13.8377 124.848 20.533 139.618 8.00633 136.963C-0.200754 135.925 0.000443154 127.964 0.000438949 109.617C2.04148 94.0401 11.354 73.5013 13.8377 73.5013C19.4439 73.5013 19.3451 89.4246 16.2135 106.502Z" fill="#9C9E67"/>
<path d="M16.2135 106.502C13.8377 124.848 20.533 139.618 8.00633 136.963C-0.200754 135.925 0.000443154 127.964 0.000438949 109.617C2.04148 94.0401 11.354 73.5013 13.8377 73.5013C19.4439 73.5013 19.3451 89.4246 16.2135 106.502Z" fill="#9C9E67"/>
<ellipse cx="50.1191" cy="110.887" rx="24.2656" ry="31.8467" fill="#FAE8BA"/>
<path d="M40.5948 173.311C40.6339 176.056 34.4691 179.815 29.5606 179.888C24.6521 179.96 21.9217 179.924 21.8827 177.179C21.8437 174.434 27.2787 169.307 32.1872 169.234C37.0957 169.162 40.5558 170.566 40.5948 173.311Z" fill="#FAE7BB"/>
<path d="M59.9623 173.311C59.9233 176.056 66.088 179.815 70.9965 179.888C75.905 179.96 78.6354 179.924 78.6744 177.179C78.7134 174.434 73.2784 169.307 68.3699 169.234C63.4614 169.162 60.0013 170.566 59.9623 173.311Z" fill="#FAE7BB"/>
<path d="M45.0153 156.118C45.0153 161.867 45.0153 171.695 39.9957 174.58C38.7682 173.542 29.1546 171.695 25.8292 171.695C23.1521 169.503 20.9207 164.311 17.5747 155.195C17.5747 145.254 25.1946 137.195 33.0802 137.195C40.9657 137.195 45.0153 146.177 45.0153 156.118Z" fill="#9C9E67"/>
<path d="M55.1074 156.118C55.1074 161.867 55.1074 171.695 60.21 174.58C61.4577 173.542 71.2302 171.695 74.6106 171.695C77.332 169.503 79.0333 163.964 82.4346 154.849C82.4346 144.908 75.2556 137.195 67.2398 137.195C59.2239 137.195 55.1074 146.177 55.1074 156.118Z" fill="#9C9E67"/>
<mask id="path-11-outside-1_253_545" maskUnits="userSpaceOnUse" x="11.4316" y="16.2696" width="76" height="59" fill="black">
<rect fill="white" x="11.4316" y="16.2696" width="76" height="59"/>
<path d="M62.1386 19.2696C74.037 19.2698 83.5685 32.5396 84.1357 43.3858C86.1812 55.768 73.297 69.1882 61.7978 69.7178C59.1561 70.8873 54.758 71.6553 49.7782 71.6553C44.7767 71.6553 40.3622 70.8813 37.7245 69.7032C26.2925 68.9845 13.6174 55.6741 15.6474 43.3858C16.2145 32.5395 25.7469 19.2697 37.6454 19.2696C42.343 19.2696 46.3827 20.3956 49.8915 22.9893C53.4004 20.3953 57.4408 19.2696 62.1386 19.2696Z"/>
</mask>
<path d="M62.1386 19.2696C74.037 19.2698 83.5685 32.5396 84.1357 43.3858C86.1812 55.768 73.297 69.1882 61.7978 69.7178C59.1561 70.8873 54.758 71.6553 49.7782 71.6553C44.7767 71.6553 40.3622 70.8813 37.7245 69.7032C26.2925 68.9845 13.6174 55.6741 15.6474 43.3858C16.2145 32.5395 25.7469 19.2697 37.6454 19.2696C42.343 19.2696 46.3827 20.3956 49.8915 22.9893C53.4004 20.3953 57.4408 19.2696 62.1386 19.2696Z" fill="#FAE8BA"/>
<path d="M62.1386 19.2696L62.1386 16.2696H62.1386V19.2696ZM84.1357 43.3858L81.1397 43.5424L81.1485 43.7096L81.1758 43.8748L84.1357 43.3858ZM61.7978 69.7178L61.6597 66.721L61.0978 66.7469L60.5834 66.9746L61.7978 69.7178ZM49.7782 71.6553L49.7782 74.6553H49.7782V71.6553ZM37.7245 69.7032L38.948 66.964L38.4534 66.7431L37.9127 66.7091L37.7245 69.7032ZM15.6474 43.3858L18.6073 43.8748L18.6345 43.7096L18.6433 43.5424L15.6474 43.3858ZM37.6454 19.2696V16.2696H37.6454L37.6454 19.2696ZM49.8915 22.9893L48.1082 25.4018L49.8916 26.72L51.6749 25.4017L49.8915 22.9893ZM62.1386 19.2696L62.1385 22.2696C66.9302 22.2697 71.5184 24.9558 75.093 29.1945C78.6685 33.4342 80.8946 38.8544 81.1397 43.5424L84.1357 43.3858L87.1316 43.2292C86.8096 37.071 83.9864 30.4332 79.6797 25.3264C75.3722 20.2186 69.2454 16.2697 62.1386 16.2696L62.1386 19.2696ZM84.1357 43.3858L81.1758 43.8748C82.0045 48.8913 79.8244 54.4656 75.8006 59.007C71.7694 63.5567 66.3798 66.5036 61.6597 66.721L61.7978 69.7178L61.9358 72.7147C68.715 72.4024 75.5171 68.3744 80.2914 62.986C85.0731 57.5893 88.3123 50.2625 87.0955 42.8968L84.1357 43.3858ZM61.7978 69.7178L60.5834 66.9746C58.4746 67.9082 54.5435 68.6553 49.7782 68.6553V71.6553V74.6553C54.9726 74.6553 59.8376 73.8664 63.0122 72.4611L61.7978 69.7178ZM49.7782 71.6553L49.7783 68.6553C44.9901 68.6553 41.0476 67.9018 38.948 66.964L37.7245 69.7032L36.5011 72.4424C39.6768 73.8608 44.5634 74.6553 49.7782 74.6553L49.7782 71.6553ZM37.7245 69.7032L37.9127 66.7091C33.2032 66.413 27.8677 63.4372 23.8932 58.9051C19.9249 54.38 17.7849 48.8527 18.6073 43.8748L15.6474 43.3858L12.6875 42.8969C11.4799 50.2073 14.6625 57.4793 19.3822 62.8611C24.0958 68.236 30.8138 72.2747 37.5363 72.6973L37.7245 69.7032ZM15.6474 43.3858L18.6433 43.5424C18.8884 38.8544 21.1147 33.4342 24.6904 29.1945C28.2653 24.9557 32.8537 22.2696 37.6454 22.2696L37.6454 19.2696L37.6454 16.2696C30.5386 16.2696 24.4116 20.2185 20.1038 25.3262C15.7969 30.433 12.9735 37.0709 12.6515 43.2292L15.6474 43.3858ZM37.6454 19.2696V22.2696C41.8288 22.2696 45.2098 23.2592 48.1082 25.4018L49.8915 22.9893L51.6748 20.5769C47.5556 17.532 42.8571 16.2696 37.6454 16.2696V19.2696ZM49.8915 22.9893L51.6749 25.4017C54.5733 23.2591 57.9547 22.2696 62.1386 22.2696V19.2696V16.2696C56.9269 16.2696 52.2276 17.5316 48.1082 20.5769L49.8915 22.9893Z" fill="#9C9E67" mask="url(#path-11-outside-1_253_545)"/>
<path d="M82.8217 54.045C80.7782 58.2063 73.1355 53.4504 67.1415 50.4024C61.1475 47.3543 56.7393 41.0137 58.7828 36.8524C60.252 33.8607 64.7742 33.5952 69.4275 34.8149C73.1062 35.7791 76.4159 37.9508 78.8259 40.9325C82.5775 45.5741 84.378 50.8759 82.8217 54.045Z" fill="#B4884F"/>
<path d="M16.94 53.5834C18.9835 57.7448 26.6262 52.9888 32.6202 49.9408C38.6143 46.8928 43.0224 40.5522 40.9789 36.3908C39.5098 33.3991 34.9876 33.1336 30.3342 34.3533C26.6555 35.3175 23.3459 37.4892 20.9359 40.4709C17.1842 45.1125 15.3837 50.4143 16.94 53.5834Z" fill="#B4884F"/>
<path d="M25.8528 41.6546C25.8528 42.5468 28.3674 41.6546 31.7491 41.6546C35.1308 41.6546 37.7588 43.7007 37.7588 42.8085C37.7588 41.9163 35.1308 39.3469 31.7491 39.3469C28.3674 39.3469 25.8528 40.7625 25.8528 41.6546Z" fill="#2D1E1F"/>
<path d="M74.3846 41.6546C74.3846 42.5468 71.8699 41.6546 68.4882 41.6546C65.1065 41.6546 62.4785 43.7007 62.4785 42.8085C62.4785 41.9163 65.1065 39.3469 68.4882 39.3469C71.8699 39.3469 74.3846 40.7625 74.3846 41.6546Z" fill="#2D1E1F"/>
<path d="M61.9114 53.3087C61.9114 57.0049 55.6686 62.5397 50.3455 62.5397C45.0225 62.5397 37.8726 57.0049 37.8726 53.3087C37.8726 49.6126 44.3422 45.8086 49.6652 45.8086C54.9882 45.8086 61.9114 49.6126 61.9114 53.3087Z" fill="#B9A77C"/>
<path d="M40.2544 52.6337C40.2544 52.331 40.5377 52.108 40.832 52.1793L48.4693 54.0282C49.4772 54.2722 50.5291 54.2694 51.5357 54.02L58.847 52.2088C59.1946 52.1227 59.5308 52.3858 59.5308 52.7439C59.5308 53.0056 59.347 53.2312 59.0907 53.2839L51.4193 54.8634C50.485 55.0557 49.5215 55.0579 48.5864 54.8697L40.803 53.3037C40.4839 53.2395 40.2544 52.9592 40.2544 52.6337Z" fill="black"/>
<path d="M56.9221 47.0778C56.9221 50.2641 53.0721 50.8856 49.7217 50.8856C46.3714 50.8856 43.0884 50.2641 43.0884 47.0778C43.0884 43.8915 46.3714 39.3469 49.7217 39.3469C53.0721 39.3469 56.9221 43.8915 56.9221 47.0778Z" fill="#3C2A2B"/>
<path d="M23.2456 78.9246C20.6896 82.9791 18.7502 87.3908 17.4908 92.0153L16.7823 94.6172C15.8765 100.455 15.4216 106.353 15.4216 112.261V118.618V133.849" stroke="#707247"/>
<path d="M76.6528 78.9246C79.2088 82.9791 81.1483 87.3908 82.4076 92.0153L83.1161 94.6172C84.0219 100.455 84.4768 106.353 84.4768 112.261V118.618V133.849" stroke="#707247"/>
</svg>
